<svg xmlns:inkscape="http://www.inkscape.org/namespaces/inkscape" xmlns:sodipodi="http://sodipodi.sourceforge.net/DTD/sodipodi-0.dtd" xmlns="http://www.w3.org/2000/svg" xmlns:svg="http://www.w3.org/2000/svg" version="1.1" id="svg2" xml:space="preserve" width="1583.64" height="1040.2253" viewBox="0 0 1583.64 1040.2253" sodipodi:docname="JOEL TRANSPORT LOGO APPROVED (NR).ai"><defs id="defs6"><clipPath id="clipPath16"><path d="M 0,780.169 H 1187.729 V 0 H 0 Z" id="path14"></path></clipPath></defs><g id="g8" inkscape:groupmode="layer" inkscape:label="JOEL TRANSPORT LOGO APPROVED (NR)" transform="matrix(1.3333333,0,0,-1.3333333,0,1040.2253)"><g id="g10"><g id="g12" clip-path="url(#clipPath16)"><g id="g18" transform="translate(125.7778,399.0164)"><path d="m 0,0 c 0,0 64.158,64.694 129.503,80.732 -0.028,-7.398 -0.033,-130.2 -0.082,-137.597 -0.2,-30.52 -11.75,-62.093 -27.507,-87.968 -19.337,-31.756 -47.778,-56.843 -80.979,-73.391 -45.186,-22.522 -96.709,-29.491 -146.713,-29.037 0,0 112.659,69.847 112.659,173.494 0,103.648 -6.76,349.242 -6.76,349.242 l 149.3,103.646 c 0,0 -0.013,-175.075 0,-183.903 0,0 -60.946,-92.233 -122.646,-174.164 C 1.538,14.1 5.134,6.712 0,0" style="fill:#18459d;fill-opacity:1;fill-rule:nonzero;stroke:none" id="path20"></path></g><g id="g22" transform="translate(932.53,342.1515)"><path d="m 0,0 c 0.2,-30.52 11.75,-62.093 27.507,-87.969 19.337,-31.755 47.779,-56.842 80.979,-73.39 45.186,-22.522 96.709,-29.491 146.713,-29.037 0,0 -112.659,69.846 -112.659,173.494 0,103.648 6.76,454.919 6.76,454.919 L 0,435.986 c 0,0 0.013,-192.522 0,-201.349 C 0,234.637 -0.048,7.397 0,0" style="fill:#18459d;fill-opacity:1;fill-rule:nonzero;stroke:none" id="path24"></path></g><g id="g26" transform="translate(719.3008,567.6159)"><path d="m 0,0 c 0,-22.689 -18.393,-41.082 -41.082,-41.082 -22.689,0 -41.082,18.393 -41.082,41.082 0,22.689 18.393,41.082 41.082,41.082 C -18.393,41.082 0,22.689 0,0" style="fill:#18459d;fill-opacity:1;fill-rule:nonzero;stroke:none" id="path28"></path></g><g id="g30" transform="translate(843.6273,567.6159)"><path d="m 0,0 c 0,-22.689 -18.393,-41.082 -41.082,-41.082 -22.689,0 -41.082,18.393 -41.082,41.082 0,22.689 18.393,41.082 41.082,41.082 C -18.393,41.082 0,22.689 0,0" style="fill:#18459d;fill-opacity:1;fill-rule:nonzero;stroke:none" id="path32"></path></g><g id="g34" transform="translate(428.9438,257.8745)"><path d="m 0,0 c -41.047,0 -74.322,33.275 -74.322,74.322 0,41.047 33.275,74.322 74.322,74.322 41.047,0 74.322,-33.275 74.322,-74.322 C 74.322,33.275 41.047,0 0,0 m 0,229.44 c -85.67,0 -155.119,-69.449 -155.119,-155.118 0,-85.67 69.449,-155.119 155.119,-155.119 85.67,0 155.119,69.449 155.119,155.119 C 155.119,159.991 85.67,229.44 0,229.44" style="fill:#18459d;fill-opacity:1;fill-rule:nonzero;stroke:none" id="path36"></path></g><g id="g38" transform="translate(491.5355,530.3527)"><path d="m 0,0 -90.551,116.45 0.232,-66.664 -1.553,-0.013 c 0,0 -193.42,2.734 -287.602,-198.286 0,0 105.113,101.448 248.211,100.49 0,0 34.65,-1.372 41.284,-2.688 l 0.228,-66.777 z" style="fill:#ee2324;fill-opacity:1;fill-rule:nonzero;stroke:none" id="path40"></path></g><g id="g42" transform="translate(832.7308,332.1963)"><path d="m 0,0 c 0,-41.047 -33.275,-74.322 -74.322,-74.322 -41.047,0 -74.322,33.275 -74.322,74.322 0,41.047 33.275,74.322 74.322,74.322 3.525,0 6.989,-0.254 10.384,-0.728 -9.078,-12.793 -16.552,-23.328 -17.159,-24.196 -6.646,-9.497 -10.008,-21.816 -10.814,-33.294 -0.99,-14.086 1.537,-38.617 27.639,-57.794 l 105.835,145.178 -4.907,4.86 0.012,0.017 c -1.343,1.375 -2.719,2.717 -4.112,4.042 l -0.262,0.26 -0.034,0.022 C 19.138,125.105 3.855,135.26 -12.975,142.514 l -1.397,0.921 c 0,0 -0.067,-0.096 -0.184,-0.261 -18.396,7.688 -38.582,11.945 -59.766,11.945 -85.67,0 -155.119,-69.449 -155.119,-155.119 0,-85.67 69.449,-155.118 155.119,-155.118 79.239,0 144.601,59.414 153.967,136.123 z" style="fill:#18459d;fill-opacity:1;fill-rule:nonzero;stroke:none" id="path44"></path></g><g id="g46" transform="translate(189.4872,98.1738)"><path d="M 0,0 H -29.363 V 19.279 H 48.494 V 0 H 19.279 V -94.912 H 0 Z" style="fill:#ee2324;fill-opacity:1;fill-rule:nonzero;stroke:none" id="path48"></path></g><g id="g50" transform="translate(270.9008,64.8066)"><path d="m 0,0 h 21.8 c 10.678,0 18.093,5.932 18.093,16.758 0,10.678 -7.415,16.609 -18.093,16.609 l -21.8,0 z M 40.486,-61.545 17.055,-19.279 H 0 V -61.545 H -19.279 V 52.646 h 42.562 c 19.724,0 35.889,-14.533 35.889,-35.888 0,-16.313 -9.195,-28.621 -22.394,-33.664 l 25.953,-44.639 z" style="fill:#ee2324;fill-opacity:1;fill-rule:nonzero;stroke:none" id="path52"></path></g><g id="g54" transform="translate(402.8846,42.1172)"><path d="M 0,0 -14.237,34.701 -28.474,0 Z m 7.415,-18.093 h -43.304 l -8.453,-20.762 h -21.8 L -14.237,78.303 37.668,-38.855 h -21.8 z" style="fill:#ee2324;fill-opacity:1;fill-rule:nonzero;stroke:none" id="path56"></path></g><g id="g58" transform="translate(470.6556,73.4082)"><path d="M 0,0 V -70.146 H -19.279 V 47.012 L 49.384,-26.397 V 44.045 H 68.663 V -73.408 Z" style="fill:#ee2324;fill-opacity:1;fill-rule:nonzero;stroke:none" id="path60"></path></g><g id="g62" transform="translate(553.702,28.0283)"><path d="m 0,0 17.5,7.86 c 2.521,-9.343 9.936,-14.978 18.981,-14.978 10.085,0 16.758,6.97 16.758,16.164 0,22.839 -47.159,16.906 -47.159,51.609 0,18.834 13.941,30.253 31.144,30.253 14.83,0 26.693,-8.601 30.994,-21.355 L 50.867,61.544 c -1.632,7.119 -6.377,11.271 -13.199,11.271 -7.415,0 -12.457,-4.894 -12.457,-11.567 0,-20.317 47.308,-15.423 47.308,-52.499 0,-21.059 -15.423,-34.998 -35.444,-34.998 C 19.279,-26.249 4.597,-15.274 0,0" style="fill:#ee2324;fill-opacity:1;fill-rule:nonzero;stroke:none" id="path64"></path></g><g id="g66" transform="translate(684.204,64.8066)"><path d="M 0,0 C 9.194,0 16.609,5.932 16.609,16.758 16.609,27.436 9.194,33.367 0,33.367 H -23.283 V 0 Z M -42.563,52.646 H 0 c 19.724,0 35.888,-13.05 35.888,-35.888 C 35.888,-6.229 19.872,-19.279 0,-19.279 h -23.283 v -42.266 h -19.28 z" style="fill:#ee2324;fill-opacity:1;fill-rule:nonzero;stroke:none" id="path68"></path></g><g id="g70" transform="translate(826.4218,60.3574)"><path d="m 0,0 c 0,21.504 -17.352,39.3 -39.3,39.3 -21.504,0 -39.3,-17.351 -39.3,-39.3 0,-21.504 17.352,-39.299 39.3,-39.299 C -17.796,-39.299 0,-21.948 0,0 m -97.878,0 c 0,32.923 26.693,58.579 58.578,58.579 32.923,0 58.578,-26.694 58.578,-58.579 0,-32.922 -26.693,-58.578 -58.578,-58.578 -32.923,0 -58.578,26.693 -58.578,58.578" style="fill:#ee2324;fill-opacity:1;fill-rule:nonzero;stroke:none" id="path72"></path></g><g id="g74" transform="translate(882.4755,64.8066)"><path d="m 0,0 h 21.8 c 10.678,0 18.093,5.932 18.093,16.758 0,10.678 -7.415,16.609 -18.093,16.609 l -21.8,0 z M 40.485,-61.545 17.054,-19.279 H 0 V -61.545 H -19.279 V 52.646 h 42.562 c 19.724,0 35.888,-14.533 35.888,-35.888 0,-16.313 -9.194,-28.621 -22.393,-33.664 L 62.73,-61.545 Z" style="fill:#ee2324;fill-opacity:1;fill-rule:nonzero;stroke:none" id="path76"></path></g><g id="g78" transform="translate(980.202,98.1738)"><path d="M 0,0 H -29.364 V 19.279 H 48.494 V 0 H 19.278 V -94.912 H 0 Z" style="fill:#ee2324;fill-opacity:1;fill-rule:nonzero;stroke:none" id="path80"></path></g><g id="g82" transform="translate(254.5342,436.8261)"><path d="m 0,0 c -74.601,-15.325 -142.472,-54.986 -142.472,-54.986 37.133,35.065 97.353,66.709 123.071,77.041 11.691,4.696 19.948,7.071 19.948,7.071 V 14.629 L 0.317,4.293 Z" style="fill:#051633;fill-opacity:1;fill-rule:nonzero;stroke:none" id="path84"></path></g><g id="g86" transform="translate(152.1299,432.896)"><path d="m 0,0 3.513,-3.513 c 0,0 10.959,10.472 22.084,20.026 L 22.328,20.41 C 22.328,20.41 4.132,4.543 0,0" style="fill:#ffffff;fill-opacity:1;fill-rule:nonzero;stroke:none" id="path88"></path></g><g id="g90" transform="translate(202.4375,469.428)"><path d="m 0,0 -2.87,4.11 c 0,0 13.438,9.073 25.728,16.059 L 25.26,15.827 C 25.26,15.827 7.197,5.263 0,0" style="fill:#ffffff;fill-opacity:1;fill-rule:nonzero;stroke:none" id="path92"></path></g><g id="g94" transform="translate(252.2377,503.1411)"><path d="m 0,0 2.109,-4.585 c 0,0 18.204,7.841 27.88,10.729 l -1.697,4.769 C 28.292,10.913 11.739,5.182 0,0" style="fill:#ffffff;fill-opacity:1;fill-rule:nonzero;stroke:none" id="path96"></path></g><g id="g98" transform="translate(309.6472,522.1248)"><path d="m 0,0 1.192,-4.815 c 0,0 21.277,4.402 29.301,5.182 L 29.851,5.273 C 29.851,5.273 13.573,3.256 0,0" style="fill:#ffffff;fill-opacity:1;fill-rule:nonzero;stroke:none" id="path100"></path></g><g id="g102" transform="translate(369.6245,529.8283)"><path d="m 0,0 0.236,-4.894 c 0,0 24.991,0.21 28.787,0.21 V 0.291 C 29.023,0.291 3.449,0.341 0,0" style="fill:#ffffff;fill-opacity:1;fill-rule:nonzero;stroke:none" id="path104"></path></g></g></g></g></svg>