<svg id="jt_logo_monochrome" xmlns="http://www.w3.org/2000/svg" width="120" height="78.821" viewBox="0 0 120 78.821">
  <g id="Layer_1" data-name="Layer 1">
    <path id="Path_4" data-name="Path 4" d="M12.711,38.545s6.48-6.54,13.081-8.158v13.9a17.892,17.892,0,0,1-2.78,8.89,19.914,19.914,0,0,1-8.184,7.418A32.767,32.767,0,0,1,0,63.527S11.386,56.471,11.386,46,10.7,10.713,10.7,10.713L25.818.24V18.82s-6.153,9.32-12.392,17.6c-.525.7-.164,1.446-.68,2.126" transform="translate(0 -0.033)" fill="#162643"/>
    <path id="Path_5" data-name="Path 5" d="M109.48,44.251a17.891,17.891,0,0,0,2.78,8.89,19.914,19.914,0,0,0,8.184,7.418,32.594,32.594,0,0,0,14.819,2.935s-11.377-7.057-11.377-17.53S124.557,0,124.557,0L109.48.207V44.251" transform="translate(-15.263)" fill="#162643"/>
    <path id="Path_6" data-name="Path 6" d="M83.1,24.328a4.157,4.157,0,1,1-4.157-4.148A4.157,4.157,0,0,1,83.1,24.328" transform="translate(-10.427 -2.813)" fill="#162643"/>
    <path id="Path_7" data-name="Path 7" d="M97.656,24.328a4.148,4.148,0,1,1-4.148-4.148,4.148,4.148,0,0,1,4.148,4.148" transform="translate(-12.458 -2.813)" fill="#162643"/>
    <path id="Path_8" data-name="Path 8" d="M47.818,57.564a7.513,7.513,0,1,1,7.5-7.513,7.513,7.513,0,0,1-7.5,7.513m0-23.184A15.68,15.68,0,1,0,63.49,50.054,15.68,15.68,0,0,0,47.818,34.38" transform="translate(-4.479 -4.793)" fill="#162643"/>
    <path id="Path_9" data-name="Path 9" d="M94.018,50.052a7.513,7.513,0,1,1-7.539-7.5,8.493,8.493,0,0,1,1.05.069c-.921,1.3-1.67,2.358-1.721,2.444a6.885,6.885,0,0,0-1.05,3.365,6.446,6.446,0,0,0,2.8,5.843L98.244,39.6l-.491-.491h0l-.413-.4h0a15.732,15.732,0,0,0-4.57-3.012l-.138-.095h0a15.671,15.671,0,1,0,9.518,16.351Z" transform="translate(-9.888 -4.793)" fill="#162643"/>
    <path id="Path_10" data-name="Path 10" d="M21.769,79.755H18.8V77.81h7.866v1.945H23.714v9.587H21.769Z" transform="translate(-2.621 -10.848)" fill="#162643"/>
    <path id="Path_11" data-name="Path 11" d="M31.485,83.137h2.2a1.721,1.721,0,1,0,0-3.373h-2.2Zm4.1,6.213-2.367-4.3H31.494v4.3H29.54V77.81h4.3a3.649,3.649,0,0,1,1.36,7.048l2.625,4.509Z" transform="translate(-4.118 -10.848)" fill="#162643"/>
    <path id="Path_12" data-name="Path 12" d="M46.217,85.369,44.78,81.858l-1.4,3.511Zm.749,1.824H42.594l-.861,2.1h-2.2L44.78,77.46l5.241,11.833h-2.2Z" transform="translate(-5.511 -10.799)" fill="#162643"/>
    <path id="Path_13" data-name="Path 13" d="M54.944,82.21v7.083H52.99V77.46l6.936,7.418V77.761H61.88V89.62Z" transform="translate(-7.388 -10.799)" fill="#162643"/>
    <path id="Path_14" data-name="Path 14" d="M65,86.812l1.721-.792a1.954,1.954,0,0,0,1.919,1.515A1.6,1.6,0,0,0,70.361,85.9c0-2.306-4.768-1.721-4.768-5.215a2.978,2.978,0,0,1,3.15-3.055,3.21,3.21,0,0,1,3.141,2.16l-1.721.809a1.325,1.325,0,0,0-1.334-1.145,1.17,1.17,0,0,0-1.248,1.17c0,2.057,4.776,1.558,4.776,5.31a3.442,3.442,0,0,1-3.58,3.537A3.83,3.83,0,0,1,65,86.812" transform="translate(-9.062 -10.822)" fill="#162643"/>
    <path id="Path_15" data-name="Path 15" d="M79.633,83.138a1.721,1.721,0,0,0,0-3.373H77.275v3.373Zm-4.3-5.318h4.3a3.632,3.632,0,0,1,0,7.263H77.275v4.3H75.33Z" transform="translate(-10.502 -10.849)" fill="#162643"/>
    <path id="Path_16" data-name="Path 16" d="M95.4,83.551a3.967,3.967,0,1,0-3.967,3.967A3.967,3.967,0,0,0,95.4,83.551m-9.888,0a5.912,5.912,0,1,1,1.732,4.189,5.921,5.921,0,0,1-1.732-4.189" transform="translate(-11.921 -10.823)" fill="#162643"/>
    <path id="Path_17" data-name="Path 17" d="M103.294,83.137h2.194a1.721,1.721,0,1,0,0-3.373h-2.194Zm4.088,6.213-2.367-4.3h-1.721v4.3H101.34V77.81h4.3A3.649,3.649,0,0,1,107,84.858l2.582,4.509Z" transform="translate(-14.128 -10.848)" fill="#162643"/>
    <path id="Path_18" data-name="Path 18" d="M114.6,79.755H111.63V77.81H119.5v1.945h-2.952v9.587H114.6Z" transform="translate(-15.563 -10.848)" fill="#162643"/>
    <path id="Path_19" data-name="Path 19" d="M51.5,27.424,42.348,15.66v6.73h-.155S22.649,22.106,13.14,42.424c0,0,10.62-10.258,25.077-10.155,0,0,3.494.138,4.165.267v6.747Z" transform="translate(-1.832 -2.183)" fill="#162643"/>
    <path id="Path_20" data-name="Path 20" d="M17.86,40.435l.353.353s1.11-1.059,2.238-2.022l-.336-.4s-1.833,1.609-2.255,2.065" transform="translate(-2.49 -5.349)" fill="#162643"/>
    <path id="Path_21" data-name="Path 21" d="M23.723,36.15l-.293-.413s1.36-.921,2.582-1.627l.241.439s-1.824,1.067-2.582,1.6" transform="translate(-3.266 -4.755)" fill="#162643"/>
    <path id="Path_22" data-name="Path 22" d="M29.61,32.342l.215.465s1.842-.792,2.814-1.084l-.172-.482s-1.67.585-2.857,1.1" transform="translate(-4.128 -4.355)" fill="#162643"/>
    <path id="Path_23" data-name="Path 23" d="M36.35,30.214l.12.482s2.151-.448,2.96-.525l-.06-.491a30.362,30.362,0,0,0-3.021.534" transform="translate(-5.068 -4.138)" fill="#162643"/>
    <path id="Path_24" data-name="Path 24" d="M43.4,29.39v.5h2.909v-.5H43.38" transform="translate(-6.048 -4.097)" fill="#162643"/>
    <path id="Path_25" data-name="Path 25" d="M122.8,78.781c0-.491.181-.981.542-.981v.241c-.189,0-.293.37-.293.74s.1.74.293.74v.241c-.361,0-.542-.491-.542-.981" transform="translate(-17.12 -10.846)" fill="#162643"/>
    <path id="Path_26" data-name="Path 26" d="M124.249,78.76a.215.215,0,0,0,0-.43h-.293v.43Zm-.559-.68h.559a.447.447,0,0,1,.465.465.439.439,0,0,1-.465.465h-.293v.551h-.25Z" transform="translate(-17.244 -10.885)" fill="#162643"/>
    <path id="Path_27" data-name="Path 27" d="M125.327,78.33h-.387v-.25h1.015v.25h-.379V79.56h-.25Z" transform="translate(-17.418 -10.886)" fill="#162643"/>
    <path id="Path_28" data-name="Path 28" d="M126.606,78.855l-.456-.775h.31l.267.534L127,78.08h.31l-.456.775v.706h-.25Z" transform="translate(-17.587 -10.886)" fill="#162643"/>
    <path id="Path_29" data-name="Path 29" d="M127.58,79.523c.2,0,.293-.37.293-.74s-.095-.74-.293-.74V77.81c.361,0,.542.482.542.972s-.181.981-.542.981Z" transform="translate(-17.787 -10.848)" fill="#162643"/>
    <path id="Path_30" data-name="Path 30" d="M129.17,78.08v1.48h.809v-.25h-.559V78.08Z" transform="translate(-18.008 -10.886)" fill="#162643"/>
    <path id="Path_31" data-name="Path 31" d="M130.329,78.33h-.379v-.25h1.007v.25h-.379V79.56h-.25Z" transform="translate(-18.117 -10.886)" fill="#162643"/>
    <path id="Path_32" data-name="Path 32" d="M131.749,79.326a.5.5,0,1,0,0-1h-.181v1Zm-.439-1.256h.439a.757.757,0,1,1,0,1.515h-.439Z" transform="translate(-18.307 -10.884)" fill="#162643"/>
  </g>
</svg>
